<svg width="101" height="101" viewBox="0 0 101 101" fill="none" xmlns="http://www.w3.org/2000/svg">
<path d="M50.5 100C77.8381 100 100 77.8381 100 50.5C100 23.1619 77.8381 1 50.5 1C23.1619 1 1 23.1619 1 50.5C1 77.8381 23.1619 100 50.5 100Z" stroke="orange" stroke-width="2" stroke-miterlimit="10"/>
<path d="M59.3 26.8C65.4 22 72.2 21.9 75.2 21.9C78.2 21.9 80.7 22.3 82.4 22.7C80 37.9 80.9 53.6 85 68.4C83.3 67.5 80.5 66.3 76.9 66.1C75.8 66 72.7 65.8 68.2 67.5C61 70.2 55.9 74.8 55.8 74.6C55.6 74.4 64.7 69.4 65.7 61.5C65.8 60.6 66.4 56.2 63.5 53.9C61.3 52.2 58 52.3 55.6 53.6C53.6 54.7 52.7 56.4 52.3 57.2C51.8 56.8 49.5 54.9 46.2 55.2C44 55.4 41.1 56.8 40.3 59.3C40.1 60 39.7 61.7 41.4 64.7C45.7 72.1 55.8 74.3 55.7 74.6C55.6 74.9 48.9 72 40.5 71.9C36.3 71.9 33.8 72.6 32.1 73.3C28.8 74.6 26.6 76.5 25.3 77.8C25.4 71.9 25 63.7 22.4 54.3C20 45.4 16.5 38.4 13.5 33.5C16.6 31.6 20.9 29.8 26.1 29.4C28.6 29.2 39.6 28.2 46.4 35.8C48.9 38.6 50 41.5 50.5 43.5C50.6 41.7 51 39.1 52.2 36.1C53 34.2 55 30.1 59.3 26.8Z" stroke="orange" stroke-width="2" stroke-miterlimit="10"/>
</svg>
